<svg xmlns="http://www.w3.org/2000/svg" viewBox="0 0 640 900" width="640" height="900"><defs>
  <linearGradient id="bc4a" x1="0" x2="1"><stop offset="0" stop-color="#F4D8D7"/><stop offset=".35" stop-color="#E7B8B9"/><stop offset=".7" stop-color="#E7B8B9"/><stop offset="1" stop-color="#F4D8D7"/></linearGradient>
  <linearGradient id="cc4a" x1="0" x2="1"><stop offset="0" stop-color="#924c56"/><stop offset=".4" stop-color="#A45E68"/><stop offset="1" stop-color="#8c4650"/></linearGradient>
  <linearGradient id="hc4a" x1="0" x2="1"><stop offset="0" stop-color="#fff" stop-opacity="0"/><stop offset=".5" stop-color="#fff" stop-opacity=".55"/><stop offset="1" stop-color="#fff" stop-opacity="0"/></linearGradient>
  <radialGradient id="sc4a"><stop offset="0" stop-color="#8F4A55" stop-opacity=".22"/><stop offset="1" stop-color="#8F4A55" stop-opacity="0"/></radialGradient>
  <linearGradient id="bc4b" x1="0" x2="1"><stop offset="0" stop-color="#FAE3E5"/><stop offset=".35" stop-color="#EFC7CB"/><stop offset=".7" stop-color="#EFC7CB"/><stop offset="1" stop-color="#FAE3E5"/></linearGradient>
  <linearGradient id="cc4b" x1="0" x2="1"><stop offset="0" stop-color="#7d3843"/><stop offset=".4" stop-color="#8F4A55"/><stop offset="1" stop-color="#77323d"/></linearGradient>
  <linearGradient id="hc4b" x1="0" x2="1"><stop offset="0" stop-color="#fff" stop-opacity="0"/><stop offset=".5" stop-color="#fff" stop-opacity=".55"/><stop offset="1" stop-color="#fff" stop-opacity="0"/></linearGradient>
  <radialGradient id="sc4b"><stop offset="0" stop-color="#8F4A55" stop-opacity=".22"/><stop offset="1" stop-color="#8F4A55" stop-opacity="0"/></radialGradient></defs>
<rect width="640" height="900" fill="#F7E9E6"/><circle cx="420" cy="300" r="190" fill="#fff" opacity=".5"/>
<ellipse cx="380" cy="800" rx="260" ry="34" fill="#e7d9d6" opacity=".6"/><ellipse cx="470" cy="760" rx="127.18124999999999" ry="20.348999999999997" fill="url(#sc4b)"/>
  <rect x="385.2125" y="652.9" width="169.575" height="107.1" rx="19.634999999999998" fill="url(#bc4b)"/>
  <rect x="395.92249999999996" y="663.61" width="14.28" height="83.895" rx="7" fill="url(#hc4b)" opacity=".8"/>
  <rect x="379.85749999999996" y="601.135" width="180.285" height="55.335" rx="14.28" fill="url(#cc4b)"/>
  <rect x="388.78249999999997" y="608.275" width="162.435" height="7.14" rx="4" fill="#fff" opacity=".25"/>
  <rect x="427.60625" y="670.75" width="84.7875" height="66.402" rx="6" fill="#fff" opacity=".82"/>
  <g transform="translate(456,682.70236) scale(0.58)"><path d="M8 44V22C8 12.06 15.16 4 24 4s16 8.06 16 18v22" stroke="#8F4A55" stroke-width="2.4" fill="none" stroke-linecap="round"/><path d="M24 15c0 0-7.5 8.3-7.5 13.4a7.5 7.5 0 0 0 15 0C31.5 23.3 24 15 24 15Z" fill="#8F4A55"/></g>
  <text x="470" y="722.54356" text-anchor="middle" font-family="Georgia, serif" font-size="11" letter-spacing="2" fill="#8F4A55"></text><ellipse cx="320" cy="790" rx="149.625" ry="23.939999999999998" fill="url(#sc4a)"/>
  <rect x="220.25" y="664.0" width="199.5" height="126.0" rx="23.1" fill="url(#bc4a)"/>
  <rect x="232.85" y="676.6" width="16.8" height="98.7" rx="7" fill="url(#hc4a)" opacity=".8"/>
  <rect x="213.95" y="603.1" width="212.1" height="65.10000000000001" rx="16.8" fill="url(#cc4a)"/>
  <rect x="224.45" y="611.5" width="191.1" height="8.4" rx="4" fill="#fff" opacity=".25"/>
  <rect x="270.125" y="685.0" width="99.75" height="78.12" rx="6" fill="#fff" opacity=".82"/>
  <g transform="translate(306,699.0616) scale(0.58)"><path d="M8 44V22C8 12.06 15.16 4 24 4s16 8.06 16 18v22" stroke="#8F4A55" stroke-width="2.4" fill="none" stroke-linecap="round"/><path d="M24 15c0 0-7.5 8.3-7.5 13.4a7.5 7.5 0 0 0 15 0C31.5 23.3 24 15 24 15Z" fill="#8F4A55"/></g>
  <text x="320" y="745.9336" text-anchor="middle" font-family="Georgia, serif" font-size="11" letter-spacing="2" fill="#8F4A55">CLAY MASK</text></svg>