<svg xmlns="http://www.w3.org/2000/svg" viewBox="0 0 800 1000" width="800" height="1000">
<defs><radialGradient id="gtovern" cx=".45" cy=".4" r=".7"><stop offset="0" stop-color="#fff" stop-opacity=".9"/><stop offset=".45" stop-color="#EFC7CB"/><stop offset="1" stop-color="#d9b1b5"/></radialGradient></defs>
<rect width="800" height="1000" fill="#F5ECE3"/>
<path d="M170 520 C150 330 330 240 470 280 C640 330 700 470 630 610 C560 760 330 800 240 700 C200 655 180 600 170 520 Z" fill="url(#gtovern)"/>
<path d="M300 420 C360 380 460 380 520 430" stroke="#fff" stroke-width="16" stroke-linecap="round" opacity=".6" fill="none"/>
<path d="M280 560 C360 620 470 610 540 560" stroke="#d1a9ad" stroke-width="6" stroke-linecap="round" opacity=".25" fill="none"/>
<circle cx="325" cy="394" r="14" fill="#fff" opacity=".35"/><circle cx="213" cy="410" r="7" fill="#fff" opacity=".44"/><circle cx="529" cy="740" r="6" fill="#fff" opacity=".60"/><circle cx="143" cy="446" r="10" fill="#fff" opacity=".49"/><circle cx="206" cy="739" r="14" fill="#fff" opacity=".44"/><circle cx="518" cy="473" r="17" fill="#fff" opacity=".66"/><circle cx="273" cy="430" r="17" fill="#fff" opacity=".44"/><circle cx="164" cy="665" r="16" fill="#fff" opacity=".62"/><circle cx="637" cy="282" r="14" fill="#fff" opacity=".67"/><circle cx="136" cy="842" r="15" fill="#fff" opacity=".49"/><circle cx="207" cy="171" r="6" fill="#fff" opacity=".43"/><circle cx="489" cy="247" r="12" fill="#fff" opacity=".63"/><circle cx="171" cy="782" r="6" fill="#fff" opacity=".69"/><circle cx="370" cy="641" r="10" fill="#fff" opacity=".35"/>
</svg>