<svg xmlns="http://www.w3.org/2000/svg" viewBox="0 0 800 1000" width="800" height="1000">
<defs>
  <linearGradient id="brosem" x1="0" x2="1"><stop offset="0" stop-color="#FBEDEA"/><stop offset=".35" stop-color="#F4D6D3"/><stop offset=".7" stop-color="#F4D6D3"/><stop offset="1" stop-color="#FBEDEA"/></linearGradient>
  <linearGradient id="crosem" x1="0" x2="1"><stop offset="0" stop-color="#b7797f"/><stop offset=".4" stop-color="#C98B91"/><stop offset="1" stop-color="#b17379"/></linearGradient>
  <linearGradient id="hrosem" x1="0" x2="1"><stop offset="0" stop-color="#fff" stop-opacity="0"/><stop offset=".5" stop-color="#fff" stop-opacity=".55"/><stop offset="1" stop-color="#fff" stop-opacity="0"/></linearGradient>
  <radialGradient id="srosem"><stop offset="0" stop-color="#8F4A55" stop-opacity=".22"/><stop offset="1" stop-color="#8F4A55" stop-opacity="0"/></radialGradient>
  <linearGradient id="bgrosem" x1="0" y1="0" x2="0" y2="1"><stop offset="0" stop-color="#F7E9E6"/><stop offset="1" stop-color="#eddfdc"/></linearGradient>
</defs>
<rect width="800" height="1000" fill="url(#bgrosem)"/>
<path d="M150 1000 V430 Q150 210 400 210 Q650 210 650 430 V1000 Z" fill="#fff" opacity=".45"/>
<ellipse cx="400" cy="812" rx="250" ry="38" fill="#e5d7d4" opacity=".5"/>
<ellipse cx="400" cy="800" rx="113.4" ry="18.144000000000002" fill="url(#srosem)"/>
  <rect x="324.4" y="395.0" width="151.20000000000002" height="405.0" rx="35.1" fill="url(#brosem)"/>
  <rect x="337.9" y="416.6" width="17.55" height="351.0" rx="6" fill="url(#hrosem)" opacity=".8"/>
  <rect x="359.5" y="359.9" width="81.0" height="40.5" rx="6.75" fill="url(#crosem)"/>
  <rect x="387.85" y="308.6" width="24.3" height="54.0" fill="url(#crosem)"/>
  <path d="M364.9 308.6 H481.0 Q497.2 308.6 497.2 322.1 V330.2 H459.4 V322.1 H364.9 Z" fill="url(#crosem)"/>
  <rect x="362.2" y="287.0" width="75.60000000000001" height="24.3" rx="10.8" fill="url(#crosem)"/>
  <rect x="344.056" y="532.7" width="111.888" height="137.70000000000002" rx="6" fill="#fff" opacity=".82"/>
  <g transform="translate(386,557.4860000000001) scale(0.58)"><path d="M8 44V22C8 12.06 15.16 4 24 4s16 8.06 16 18v22" stroke="#8F4A55" stroke-width="2.4" fill="none" stroke-linecap="round"/><path d="M24 15c0 0-7.5 8.3-7.5 13.4a7.5 7.5 0 0 0 15 0C31.5 23.3 24 15 24 15Z" fill="#8F4A55"/></g>
  <text x="400" y="640.1060000000001" text-anchor="middle" font-family="Georgia, serif" font-size="12" letter-spacing="2" fill="#8F4A55">CLEANSER</text>
</svg>