<svg xmlns="http://www.w3.org/2000/svg" viewBox="0 0 800 1000" width="800" height="1000">
<defs><radialGradient id="gtvitam" cx=".45" cy=".4" r=".7"><stop offset="0" stop-color="#fff" stop-opacity=".9"/><stop offset=".45" stop-color="#F2C9C3"/><stop offset="1" stop-color="#dcb3ad"/></radialGradient></defs>
<rect width="800" height="1000" fill="#F5ECE3"/>
<path d="M170 520 C150 330 330 240 470 280 C640 330 700 470 630 610 C560 760 330 800 240 700 C200 655 180 600 170 520 Z" fill="url(#gtvitam)"/>
<path d="M300 420 C360 380 460 380 520 430" stroke="#fff" stroke-width="16" stroke-linecap="round" opacity=".6" fill="none"/>
<path d="M280 560 C360 620 470 610 540 560" stroke="#d4aba5" stroke-width="6" stroke-linecap="round" opacity=".25" fill="none"/>
<circle cx="387" cy="670" r="11" fill="#fff" opacity=".45"/><circle cx="484" cy="368" r="14" fill="#fff" opacity=".69"/><circle cx="634" cy="477" r="16" fill="#fff" opacity=".49"/><circle cx="319" cy="385" r="12" fill="#fff" opacity=".49"/><circle cx="324" cy="670" r="13" fill="#fff" opacity=".57"/><circle cx="149" cy="168" r="18" fill="#fff" opacity=".52"/><circle cx="603" cy="405" r="9" fill="#fff" opacity=".57"/><circle cx="577" cy="497" r="11" fill="#fff" opacity=".40"/><circle cx="345" cy="244" r="9" fill="#fff" opacity=".65"/><circle cx="321" cy="485" r="9" fill="#fff" opacity=".65"/><circle cx="121" cy="630" r="16" fill="#fff" opacity=".57"/><circle cx="206" cy="816" r="7" fill="#fff" opacity=".59"/><circle cx="324" cy="629" r="8" fill="#fff" opacity=".62"/><circle cx="460" cy="228" r="18" fill="#fff" opacity=".60"/>
</svg>